
<svg width="67" height="60" viewBox="0 0 67 60" fill="none" xmlns="http://www.w3.org/2000/svg">
<path d="M11.0588 23.6877C12.645 23.6877 14.0472 23.8654 15.2653 24.2207C16.4962 24.5633 17.486 24.9313 18.2347 25.3246C18.9833 25.7053 19.4402 25.9591 19.6051 26.086L16.4455 31.4156C16.2424 31.2506 15.8935 31.0285 15.3986 30.7494C14.9037 30.4702 14.3327 30.2228 13.6855 30.007C13.051 29.7786 12.4166 29.6644 11.7821 29.6644C10.97 29.6644 10.3038 29.7977 9.78352 30.0641C9.27595 30.3179 9.02216 30.7176 9.02216 31.2633C9.02216 31.644 9.16174 31.9866 9.44091 32.2911C9.72008 32.5957 10.1642 32.9002 10.7733 33.2048C11.3951 33.5093 12.2135 33.8392 13.2287 34.1945C14.1804 34.5245 15.0623 34.9242 15.8744 35.3937C16.6992 35.8632 17.4162 36.4215 18.0253 37.0687C18.6344 37.7158 19.1102 38.4582 19.4528 39.2957C19.8081 40.1332 19.9858 41.0785 19.9858 42.1317C19.9858 43.4768 19.7066 44.6316 19.1483 45.596C18.6027 46.5477 17.8603 47.3281 16.9213 47.9371C15.995 48.5462 14.9481 48.9967 13.7807 49.2886C12.6133 49.5804 11.4205 49.7263 10.2023 49.7263C8.40038 49.7263 6.78883 49.5297 5.36761 49.1363C3.95909 48.7302 2.81705 48.2924 1.94148 47.8229C1.0786 47.3534 0.558333 47.0299 0.380682 46.8522L3.63551 41.3133C3.77509 41.4275 4.0733 41.6115 4.53011 41.8653C4.98693 42.1191 5.53258 42.3855 6.16705 42.6647C6.8142 42.9439 7.49309 43.1786 8.20369 43.369C8.9143 43.5593 9.58684 43.6545 10.2213 43.6545C11.1857 43.6545 11.9027 43.4959 12.3722 43.1786C12.8417 42.8487 13.0764 42.3982 13.0764 41.8272C13.0764 41.4085 12.9305 41.0341 12.6386 40.7042C12.3468 40.3616 11.8709 40.0253 11.2111 39.6954C10.5512 39.3528 9.66932 38.9721 8.56534 38.5533C7.47405 38.1346 6.44621 37.6143 5.48182 36.9925C4.53011 36.3581 3.74972 35.546 3.14062 34.5562C2.54422 33.5664 2.24602 32.3355 2.24602 30.8636C2.24602 29.3789 2.65843 28.1036 3.48324 27.0377C4.32074 25.9591 5.41203 25.1343 6.7571 24.5633C8.10218 23.9796 9.53608 23.6877 11.0588 23.6877ZM21.8993 33.6425H24.4118V27.2281H31.0737V33.6425H34.3857V39.1434H31.0737V42.1888C31.0737 42.7345 31.1435 43.204 31.2831 43.5974C31.4354 43.9781 31.7526 44.1684 32.2348 44.1684C32.5267 44.1684 32.7868 44.1049 33.0152 43.9781C33.2436 43.8385 33.3832 43.7433 33.434 43.6925L35.68 48.4511C35.5785 48.5272 35.2676 48.6731 34.7473 48.8888C34.2398 49.0919 33.5926 49.2822 32.8058 49.4599C32.0318 49.6375 31.1689 49.7263 30.2172 49.7263C28.5295 49.7263 27.14 49.2632 26.0487 48.3369C24.9575 47.3978 24.4118 45.9576 24.4118 44.0161V39.1434H21.8993V33.6425ZM49.2123 33.1857C50.3417 33.1857 51.433 33.4078 52.4862 33.8519C53.5521 34.296 54.4277 35.0067 55.1129 35.9837C55.8108 36.9608 56.1598 38.2361 56.1598 39.8096V49.2695H49.4217V40.8945C49.4217 39.9428 49.2123 39.2132 48.7936 38.7056C48.3875 38.1853 47.8038 37.9252 47.0425 37.9252C46.5476 37.9252 46.0717 38.0521 45.6149 38.3059C45.1581 38.5597 44.7901 38.915 44.5109 39.3718C44.2318 39.8286 44.0922 40.3616 44.0922 40.9707V49.2695H37.3541V23.0786H44.0922V35.7553C44.2444 35.3366 44.5617 34.9369 45.0439 34.5562C45.5388 34.1628 46.1479 33.8392 46.8712 33.5854C47.5944 33.319 48.3748 33.1857 49.2123 33.1857Z" fill="#6947DB"/>
<g clip-path="url(#clip0_158_317)">
<path d="M44.146 14.1503C44.4335 14.44 44.654 14.6786 44.6828 15.1C44.682 15.1694 44.6812 15.2388 44.6803 15.3102C44.68 15.3796 44.6796 15.449 44.6792 15.5205C44.6694 15.7162 44.6694 15.7162 44.6225 15.848C44.6 16.1646 44.8869 16.4171 45.0821 16.6476C45.1548 16.7291 45.2281 16.8101 45.3019 16.8906C45.3388 16.931 45.3757 16.9713 45.4136 17.0129C45.9781 17.6054 46.4829 17.8402 47.3022 17.8837C47.9377 17.8991 48.5735 17.8663 49.2059 17.804C49.2234 17.7587 49.2409 17.7133 49.2589 17.6666C49.3964 17.3352 49.6502 17.0697 49.9692 16.9051C50.3891 16.7451 50.8726 16.7451 51.2924 16.9051C51.6515 17.0897 51.8783 17.3922 52.0557 17.746C53.7447 17.7651 55.4336 17.7843 57.1738 17.804C57.193 17.7083 57.2122 17.6126 57.2319 17.514C57.4375 17.157 57.7734 16.9356 58.1625 16.8181C58.6354 16.7577 59.0454 16.7732 59.442 17.0501C59.4936 17.0824 59.5452 17.1147 59.5983 17.1479C59.902 17.4508 60.0882 17.8437 60.0999 18.2716C60.0934 18.6862 60.0076 19.0202 59.7253 19.3331C59.5207 19.522 59.3675 19.658 59.0931 19.7178C59.0898 20.6353 59.0892 21.5528 59.0917 22.4703C59.0928 22.8963 59.0931 23.3223 59.0913 23.7484C59.0897 24.1197 59.0898 24.491 59.0918 24.8624C59.0928 25.059 59.093 25.2555 59.0913 25.4522C59.0897 25.6717 59.091 25.8911 59.0931 26.1107C59.0919 26.1758 59.0908 26.241 59.0896 26.308C59.0872 26.6334 59.0872 26.6334 59.2545 26.8954C59.3724 26.9686 59.4905 27.0254 59.6165 27.0831C59.9401 27.4064 60.0834 27.7493 60.1036 28.2031C60.0951 28.6178 59.9494 28.9021 59.7255 29.2434C59.3813 29.5717 59.0472 29.7105 58.5696 29.7291C58.0857 29.7097 57.7146 29.5654 57.381 29.2108C57.0744 28.8081 56.9974 28.3947 57.0575 27.895C57.163 27.42 57.4192 27.1285 57.8135 26.8511C57.8711 26.832 57.9287 26.8129 57.988 26.7931C57.988 24.4583 57.988 22.1234 57.988 19.7178C57.8537 19.6413 57.7193 19.5647 57.5809 19.4858C57.4669 19.3825 57.4669 19.3825 57.3846 19.2829C57.3426 19.2335 57.3426 19.2335 57.2996 19.1832C57.2263 19.0713 57.2031 18.9773 57.1738 18.8479C56.5125 18.8434 55.8512 18.8417 55.1899 18.8435C54.8828 18.8443 54.5758 18.8441 54.2687 18.8417C53.9723 18.8395 53.676 18.8397 53.3795 18.8417C53.2665 18.8421 53.1535 18.8415 53.0405 18.84C52.4408 18.8041 52.4408 18.8041 51.9124 19.0219C51.8242 19.1548 51.7668 19.281 51.7068 19.4278C51.5536 19.5529 51.5536 19.5529 51.4087 19.6308C51.3365 19.6712 51.3365 19.6712 51.2628 19.7124C50.9273 19.867 50.5746 19.8905 50.218 19.7921C49.9082 19.6766 49.67 19.5481 49.4385 19.3118C49.3978 19.2079 49.3978 19.2079 49.3561 19.1019C49.2996 18.9901 49.2996 18.9901 49.2059 18.9059C48.9751 18.8457 48.7477 18.8561 48.5105 18.8617C48.4421 18.8615 48.3737 18.8614 48.3032 18.8612C48.0842 18.8609 47.8654 18.8633 47.6465 18.866C47.4282 18.8678 47.21 18.8691 46.9917 18.8689C46.8559 18.869 46.7201 18.8701 46.5843 18.8726C46.1419 18.8738 45.8921 18.8319 45.5598 18.5251C45.4535 18.4187 45.3519 18.309 45.2506 18.1979C45.1733 18.1164 45.0959 18.035 45.0184 17.9536C44.8979 17.8263 44.7782 17.6986 44.6602 17.5691C44.2245 17.0546 44.2245 17.0546 43.6387 16.7772C43.4498 16.793 43.2823 16.8297 43.0991 16.8761C42.6896 16.8516 42.3585 16.6801 42.0523 16.4121C41.7479 16.0548 41.6239 15.6587 41.6524 15.1942C41.7222 14.6678 41.9765 14.3535 42.383 14.0235C42.9451 13.7168 43.6471 13.7207 44.146 14.1503ZM42.8447 15.0058C42.7221 15.1716 42.7221 15.1716 42.692 15.3682C42.7848 15.6168 42.7848 15.6168 42.9828 15.7742C43.2059 15.7948 43.3403 15.8059 43.5317 15.6836C43.6577 15.4876 43.6553 15.3648 43.6226 15.1362C43.5402 14.9864 43.5402 14.9864 43.3899 14.9043C43.1561 14.871 43.0373 14.8643 42.8447 15.0058ZM50.2891 17.9635C50.1666 18.1294 50.1666 18.1294 50.1365 18.3259C50.2129 18.55 50.2651 18.6485 50.4745 18.7645C50.7094 18.7967 50.8127 18.7433 51.0089 18.6159C51.0988 18.4366 51.0841 18.2915 51.067 18.094C50.9846 17.9441 50.9846 17.9441 50.8344 17.862C50.6005 17.8287 50.4817 17.822 50.2891 17.9635ZM58.1043 18.152C58.1043 18.3591 58.1191 18.493 58.2352 18.6667C58.3718 18.7542 58.4649 18.7822 58.6278 18.7899C58.8305 18.6959 58.9094 18.6296 59.0349 18.4419C59.0262 18.238 58.9976 18.1232 58.8786 17.9562C58.7473 17.8505 58.7473 17.8505 58.5733 17.8294C58.3299 17.8739 58.2457 17.9512 58.1043 18.152ZM58.2207 27.895C58.0843 28.0624 58.0843 28.0624 58.1116 28.272C58.1456 28.4728 58.1456 28.4728 58.2606 28.5873C58.4379 28.6686 58.551 28.677 58.7441 28.649C58.9148 28.5293 58.9677 28.4435 59.0349 28.2466C59.0497 28.0633 59.0497 28.0633 58.9404 27.9059C58.6776 27.6645 58.4995 27.6846 58.2207 27.895Z" fill="#6947DB"/>
<path d="M43.5524 0.192104C43.8955 0.454935 44.1341 0.787868 44.2033 1.21766C44.2524 1.70847 44.1581 2.12485 43.8435 2.51166C43.5214 2.84896 43.1961 2.97358 42.7368 3.02228C42.5749 3.01548 42.5749 3.01548 42.4586 2.98023C42.2031 2.90281 42.0951 2.87829 41.8472 2.99875C41.7801 3.0513 41.7146 3.10577 41.6503 3.1617C41.6139 3.19136 41.5776 3.22102 41.5401 3.25157C41.4202 3.35081 41.303 3.45263 41.1861 3.55533C41.1454 3.59062 41.1047 3.62591 41.0628 3.66226C40.7543 3.93139 40.4545 4.20895 40.1576 4.49072C40.1143 4.53159 40.0709 4.57247 40.0263 4.61458C38.9387 5.64825 38.0844 6.60517 38.0201 8.15617C38.0158 8.38337 38.0226 8.60965 38.0311 8.83668C38.0322 8.88061 38.0332 8.92454 38.0342 8.9698C38.0558 9.8559 38.1622 10.8401 38.8308 11.4895C39.6493 12.0887 40.9533 11.892 41.9114 11.8645C42.2853 11.8549 42.6594 11.8525 43.0334 11.8491C43.324 11.8464 43.6144 11.8426 43.9049 11.8354C43.9581 11.8343 44.0112 11.8332 44.066 11.832C44.1649 11.8299 44.2638 11.8273 44.3627 11.8241C44.6071 11.8193 44.8047 11.8203 45.0176 11.9466C45.1216 12.0681 45.1216 12.0681 45.2199 12.2197C45.9385 13.2783 46.8808 14.587 48.2054 14.8719C49.1116 15.0274 50.0373 15.0187 50.9535 14.995C51.0206 14.9932 51.0877 14.9915 51.1569 14.9897C52.0009 14.9657 52.8421 14.917 53.6834 14.8464C53.7086 14.7657 53.7086 14.7657 53.7343 14.6835C53.8587 14.3315 54.0484 14.159 54.3704 13.9873C54.828 13.7784 55.2383 13.7511 55.719 13.9184C56.0914 14.1303 56.4008 14.4306 56.5595 14.8344C56.6753 15.3004 56.6344 15.7508 56.3951 16.1671C56.1425 16.5122 55.8405 16.7593 55.4179 16.8433C54.9333 16.9162 54.5306 16.8208 54.1268 16.5427C53.959 16.4188 53.9125 16.3458 53.8291 16.1474C53.7526 16.0132 53.7159 15.9587 53.5668 15.9108C53.4127 15.897 53.263 15.8963 53.1082 15.8996C53.0206 15.8991 53.0206 15.8991 52.9313 15.8986C52.7381 15.8979 52.545 15.9 52.3518 15.902C52.2175 15.9019 52.0832 15.9016 51.9489 15.9011C51.595 15.9002 51.2411 15.9016 50.8872 15.9036C50.3214 15.9066 49.7555 15.9065 49.1897 15.9056C48.9921 15.9057 48.7946 15.907 48.5971 15.9084C48.4756 15.9086 48.3541 15.9088 48.2325 15.9089C48.1504 15.91 48.1504 15.91 48.0667 15.9111C47.7419 15.9102 47.5115 15.879 47.2276 15.7163C47.1095 15.5901 47.1095 15.5901 47.0119 15.4419C46.3129 14.4318 45.3957 13.1259 44.1196 12.8546C43.0344 12.6736 41.916 12.7391 40.8229 12.7996C40.7635 12.8028 40.7042 12.8059 40.6431 12.8092C40.3603 12.8248 40.0789 12.844 39.797 12.8715C39.075 12.9327 39.075 12.9327 38.7783 12.7699C38.631 12.6393 38.5094 12.5066 38.3874 12.3526C38.3345 12.3023 38.2816 12.2521 38.2271 12.2003C38.187 12.1604 38.1469 12.1205 38.1057 12.0794C38.0608 12.0348 38.016 11.9901 37.9698 11.9441C37.9253 11.8995 37.8807 11.8549 37.8348 11.8089C37.7885 11.7629 37.7422 11.7169 37.6944 11.6696C37.6502 11.6254 37.606 11.5812 37.5604 11.5357C37.5209 11.4962 37.4813 11.4567 37.4406 11.416C37.2143 11.1734 37.2061 10.9856 37.2045 10.6698C37.2035 10.5988 37.2035 10.5988 37.2025 10.5263C37.2005 10.3694 37.1994 10.2126 37.1985 10.0557C37.1981 10.0021 37.1977 9.9484 37.1973 9.89313C37.1952 9.60907 37.1938 9.32502 37.193 9.04095C37.1921 8.74809 37.1887 8.4553 37.1847 8.16247C37.1821 7.93683 37.1813 7.71121 37.181 7.48557C37.1806 7.37765 37.1794 7.26974 37.1776 7.16185C37.1624 6.21217 37.1624 6.21217 37.3786 5.95471C37.4614 5.88192 37.5459 5.81102 37.6313 5.74123C37.7242 5.65123 37.815 5.55931 37.906 5.46734C38.0126 5.35988 38.1204 5.25375 38.2287 5.14788C38.4703 4.91141 38.711 4.67395 38.9517 4.43646C39.2084 4.18323 39.4654 3.93027 39.7233 3.67819C39.9327 3.47347 40.1412 3.26791 40.3492 3.06177C40.4285 2.98351 40.5081 2.90557 40.588 2.82795C40.6992 2.71982 40.8093 2.61066 40.9192 2.50119C40.9692 2.45342 40.9692 2.45342 41.0201 2.40468C41.1219 2.30582 41.1219 2.30582 41.2372 2.14557C41.2369 1.98989 41.2369 1.98989 41.179 1.85559C41.1322 1.34672 41.1652 0.944138 41.4698 0.521722C42.0034 -0.0748267 42.85 -0.215252 43.5524 0.192104ZM42.3495 1.16691C42.2142 1.32386 42.2142 1.32386 42.1932 1.51125C42.2152 1.68445 42.2152 1.68445 42.3168 1.81935C42.5116 1.94888 42.6358 1.94224 42.8657 1.91359C43.0088 1.85727 43.0088 1.85727 43.0983 1.73961C43.1677 1.52742 43.1755 1.43224 43.0801 1.22853C42.9555 1.06741 42.9039 1.04875 42.7021 1.02192C42.5073 1.02927 42.5073 1.02927 42.3495 1.16691ZM54.7666 15.0022C54.6593 15.1544 54.6185 15.2401 54.6139 15.4263C54.7158 15.6416 54.7158 15.6416 54.9047 15.7743C55.13 15.7951 55.2624 15.8072 55.4536 15.68C55.5726 15.4996 55.5793 15.4068 55.5445 15.1943C55.4625 15.0209 55.4625 15.0209 55.3118 14.9044C55.0788 14.867 54.961 14.8645 54.7666 15.0022Z" fill="#6947DB"/>
<path d="M63.4522 4.6975C63.8381 5.05291 64.0386 5.40401 64.0629 5.9335C64.0515 6.36223 63.9365 6.69408 63.6412 7.01025C63.4723 7.16087 63.3063 7.26591 63.1032 7.36524C62.8529 9.07639 62.8529 9.07639 63.3656 10.6544C63.5435 10.8736 63.7355 11.0704 63.9429 11.2617C63.9824 11.2988 64.0219 11.3359 64.0626 11.3741C64.1775 11.4789 64.2948 11.579 64.4152 11.6775C64.4507 11.7071 64.4862 11.7367 64.5227 11.7673C64.682 11.8849 64.7836 11.9512 64.9858 11.9375C65.1171 11.9082 65.243 11.8705 65.3715 11.8308C65.8437 11.811 66.2234 11.9529 66.5783 12.2585C67.0041 12.7539 67.0449 13.1725 66.9999 13.8026C66.9035 14.216 66.5754 14.4864 66.2439 14.7305C66.1863 14.7497 66.1287 14.7688 66.0694 14.7885C66.0751 14.8365 66.0809 14.8845 66.0868 14.934C66.1017 15.3643 66.0415 15.6129 65.7565 15.9313C65.5613 16.1318 65.3593 16.324 65.1552 16.5155C65.0679 16.6003 64.9807 16.6852 64.8938 16.7704C64.6655 16.9932 64.4352 17.2138 64.2043 17.4338C63.8342 17.7868 63.4669 18.1426 63.1005 18.4993C62.9724 18.6233 62.8431 18.7459 62.7137 18.8685C62.6351 18.9444 62.5565 19.0203 62.4779 19.0962C62.4418 19.1298 62.4056 19.1634 62.3684 19.198C62.1382 19.4232 62.0679 19.5689 62.0564 19.8921C62.1337 19.9136 62.1337 19.9136 62.2127 19.9356C62.6159 20.0873 62.8196 20.3594 63.0015 20.7402C63.1008 21.1861 63.1024 21.6238 62.8899 22.0356C62.6583 22.3891 62.4626 22.5408 62.0564 22.6758C62.0564 23.0586 62.0564 23.4413 62.0564 23.8357C62.1715 23.874 62.2867 23.9122 62.4053 23.9517C62.7279 24.1811 62.9457 24.4985 63.0451 24.8796C63.1058 25.4008 63.0412 25.8326 62.7216 26.2533C62.3979 26.5982 62.0294 26.7516 61.5584 26.768C61.1335 26.7501 60.8286 26.6406 60.5006 26.3729C60.1194 25.9083 59.9724 25.5406 60.0208 24.9376C60.1093 24.4923 60.4013 24.1522 60.7659 23.8937C60.8932 23.8357 60.8932 23.8357 61.0095 23.8357C61.0095 23.4529 61.0095 23.0702 61.0095 22.6758C60.8943 22.6375 60.7792 22.5992 60.6605 22.5598C60.3109 22.3173 60.1239 21.9796 60.0208 21.5739C59.9569 21.1519 60.0418 20.7834 60.2534 20.414C60.4723 20.1281 60.6611 19.9938 61.0095 19.8921C61.0068 19.8417 61.0041 19.7913 61.0013 19.7394C60.9992 19.6725 60.9971 19.6057 60.995 19.5368C60.9923 19.4709 60.9896 19.405 60.9868 19.337C61.0318 18.9427 61.3307 18.6863 61.604 18.4217C61.6575 18.3692 61.6575 18.3692 61.7121 18.3155C61.7891 18.2399 61.8663 18.1645 61.9435 18.0891C62.0658 17.9697 62.1877 17.8499 62.3093 17.7299C62.6552 17.3889 63.0016 17.0483 63.3491 16.709C63.5621 16.5011 63.7742 16.2922 63.9857 16.0829C64.0664 16.0034 64.1473 15.9242 64.2286 15.8454C64.3422 15.7352 64.4547 15.624 64.5669 15.5125C64.6006 15.4803 64.6343 15.4481 64.669 15.415C64.8841 15.1984 64.9505 15.046 64.9644 14.7305C64.9308 14.7246 64.8972 14.7187 64.8626 14.7126C64.5451 14.6154 64.2828 14.3297 64.1247 14.0455C64.0018 13.7635 63.9079 13.4076 64.0169 13.1099C64.0667 12.9663 64.0928 12.8531 64.092 12.7007C63.9827 12.5029 63.8258 12.3636 63.6601 12.2119C63.6149 12.168 63.5697 12.1241 63.5231 12.0788C63.3785 11.939 63.2319 11.8015 63.0851 11.6641C62.9393 11.525 62.794 11.3854 62.6489 11.2456C62.5585 11.1588 62.4677 11.0725 62.3763 10.9867C62.3352 10.9478 62.294 10.9088 62.2517 10.8687C62.2153 10.8346 62.1789 10.8005 62.1414 10.7654C61.9838 10.5903 61.9918 10.4189 61.9946 10.1952C61.9951 10.1337 61.9956 10.0721 61.9962 10.0087C61.9972 9.90891 61.9972 9.90891 61.9982 9.80713C61.9983 9.66656 61.9982 9.52599 61.998 9.38542C61.9977 9.16354 61.9982 8.94181 62.0012 8.71994C62.0038 8.50595 62.0031 8.29217 62.0018 8.07817C62.0035 8.01201 62.0051 7.94585 62.0067 7.87768C62.0077 7.52896 62.0077 7.52896 61.8238 7.24917C61.6852 7.15468 61.6852 7.15468 61.5412 7.08324C61.3732 6.99428 61.3023 6.88503 61.2131 6.72005C61.1861 6.67206 61.1591 6.62406 61.1313 6.57462C60.964 6.21366 60.9493 5.81591 61.0822 5.44055C61.2881 4.9649 61.5776 4.6772 62.057 4.4739C62.5303 4.33128 63.0512 4.40882 63.4522 4.6975ZM62.1727 5.62541C62.0667 5.76326 62.0549 5.82912 62.0636 6.00237C62.1276 6.18454 62.1906 6.26544 62.3472 6.37934C62.5191 6.42284 62.5191 6.42284 62.6961 6.37934C62.8917 6.23516 62.9753 6.15233 63.0196 5.91176C62.9796 5.70318 62.9233 5.6358 62.7543 5.50942C62.5265 5.39587 62.3762 5.49747 62.1727 5.62541ZM65.1388 13.0487C65.0377 13.2109 65.0377 13.2109 65.0225 13.3967C65.0999 13.5665 65.1815 13.6712 65.3133 13.8026C65.5375 13.8275 65.6697 13.835 65.8622 13.712C65.9882 13.516 65.9858 13.3932 65.9531 13.1647C65.8497 13.0249 65.766 12.9555 65.6114 12.8783C65.4129 12.8725 65.3015 12.9394 65.1388 13.0487ZM61.1258 21.0519C61.0581 21.2203 61.0581 21.2203 61.0677 21.3999C61.1807 21.6028 61.2517 21.6747 61.4748 21.7443C61.6569 21.748 61.7352 21.7364 61.8819 21.6319C62.0183 21.4279 62.0319 21.3502 61.9982 21.1099C61.8536 20.9149 61.7706 20.8315 61.5293 20.7873C61.317 20.8279 61.2505 20.8769 61.1258 21.0519ZM61.184 24.9376C61.0824 25.0757 61.0663 25.1432 61.0749 25.3145C61.1389 25.4967 61.2019 25.5776 61.3584 25.6915C61.5304 25.735 61.5304 25.735 61.7074 25.6915C61.903 25.5473 61.9866 25.4645 62.0309 25.2239C61.9906 25.0139 61.9378 24.9469 61.7656 24.8216C61.5156 24.7257 61.3912 24.7756 61.184 24.9376Z" fill="#6947DB"/>
<path d="M49.9276 0.167234C49.9583 0.18869 49.9891 0.210145 50.0207 0.232251C50.0723 0.264547 50.1239 0.296843 50.177 0.330117C50.5198 0.671954 50.6662 1.06734 50.6682 1.54347C50.6605 1.68211 50.6605 1.68211 50.5977 1.88603C50.5765 2.06279 50.592 2.13025 50.6905 2.28141C50.8321 2.43926 50.9802 2.58668 51.1331 2.73367C51.1909 2.79106 51.2486 2.84855 51.3061 2.90616C51.4625 3.06201 51.6205 3.21621 51.7788 3.37017C51.9441 3.5316 52.108 3.69453 52.272 3.85731C52.5829 4.1654 52.8951 4.47217 53.2078 4.77845C53.6326 5.19464 54.0555 5.61269 54.4785 6.03068C54.58 6.131 54.6815 6.23131 54.7831 6.33162C54.816 6.36414 54.8489 6.39666 54.8828 6.43017C55.0786 6.62355 55.2748 6.81662 55.4712 7.00941C55.5933 7.12923 55.7152 7.24915 55.8372 7.36908C55.9209 7.45126 56.0047 7.53328 56.0886 7.6153C56.1382 7.66415 56.1879 7.71301 56.2391 7.76334C56.2824 7.80577 56.3256 7.84821 56.3702 7.89192C56.5945 8.12754 56.6067 8.26998 56.6041 8.58776C56.6039 8.64725 56.6039 8.64725 56.6036 8.70794C56.603 8.8344 56.6015 8.96083 56.6 9.08729C56.5995 9.17311 56.5989 9.25893 56.5985 9.34475C56.5972 9.55495 56.5952 9.76514 56.5928 9.97533C56.648 9.99278 56.7032 10.0102 56.7601 10.0282C57.1045 10.1479 57.3245 10.4187 57.4906 10.7365C57.6425 11.1231 57.6534 11.542 57.5301 11.9381C57.3405 12.3539 57.0377 12.6825 56.6014 12.8479C56.1564 12.9447 55.7097 12.927 55.3133 12.7011C55.2533 12.6688 55.1933 12.6365 55.1315 12.6032C54.8078 12.3435 54.637 12.0042 54.5572 11.5992C54.5185 11.1209 54.6138 10.7336 54.9243 10.3595C55.09 10.1724 55.2637 10.0835 55.4877 9.97533C55.5835 9.45561 55.6512 8.8876 55.3928 8.4068C55.0929 7.99331 54.7236 7.64157 54.3541 7.29086C54.1936 7.13727 54.0369 6.97993 53.8797 6.82306C53.6159 6.56089 53.3496 6.30152 53.0813 6.04385C52.7716 5.74627 52.4656 5.44526 52.1614 5.14204C51.8362 4.81791 51.5087 4.49626 51.1802 4.17538C51.0862 4.08315 50.9925 3.9905 50.899 3.89774C50.752 3.75231 50.6036 3.60863 50.4537 3.46615C50.3731 3.38875 50.294 3.30979 50.2149 3.23078C49.9664 2.98215 49.9664 2.98215 49.6413 2.896C49.5087 2.92527 49.3908 2.96645 49.2646 3.01599C48.8829 3.032 48.529 2.9511 48.2178 2.72601C47.9872 2.509 47.8303 2.34042 47.7525 2.03008C47.2343 2.03008 46.7161 2.03008 46.1822 2.03008C46.2027 2.3859 46.2027 2.3859 46.2293 2.74128C46.2384 3.05752 46.1784 3.23217 45.9679 3.47065C45.8665 3.57204 45.7632 3.67165 45.6587 3.76992C45.5967 3.8299 45.5348 3.89 45.473 3.95019C45.3397 4.0794 45.2062 4.20837 45.0724 4.33706C45.0386 4.36958 45.0048 4.40209 44.97 4.43559C44.9002 4.50234 44.83 4.56873 44.7595 4.63478C44.6564 4.73168 44.5547 4.83 44.4533 4.92867C44.4216 4.95774 44.3898 4.98681 44.3571 5.01676C44.2568 5.11107 44.2568 5.11107 44.1466 5.27777C44.1481 5.49168 44.1481 5.49168 44.2048 5.68373C44.2497 6.20692 44.1203 6.61701 43.7883 7.02735C43.4738 7.33963 43.1299 7.4418 42.6926 7.45982C42.2073 7.44035 41.8358 7.29631 41.504 6.93786C41.1747 6.50259 41.1134 6.10844 41.1804 5.56774C41.3261 5.083 41.6409 4.7525 42.0747 4.5021C42.4206 4.41996 42.7125 4.37713 43.0542 4.48591C43.2102 4.5209 43.2971 4.53851 43.4458 4.47662C43.5606 4.39333 43.6611 4.30403 43.7631 4.20555C43.801 4.17067 43.8389 4.13579 43.8779 4.09985C43.999 3.98605 44.1166 3.86948 44.2338 3.75179C44.2738 3.71255 44.3138 3.67331 44.3549 3.63287C44.8031 3.18615 45.1676 2.81029 45.211 2.15701C45.2028 1.92385 45.1786 1.69638 45.144 1.46574C45.1353 1.33415 45.1353 1.33415 45.211 1.15314C45.3098 1.04417 45.3098 1.04417 45.4261 0.98618C45.5916 0.983401 45.756 0.983873 45.9214 0.98618C46.0228 0.986247 46.1242 0.986167 46.2256 0.985953C46.3856 0.985697 46.5453 0.986173 46.7053 0.989153C47.3069 1.02743 47.3069 1.02743 47.839 0.812961C47.9268 0.679773 47.9847 0.553892 48.0433 0.406235C48.533 -0.0695688 49.3303 -0.198983 49.9276 0.167234ZM48.7739 1.16741C48.6674 1.36278 48.6457 1.4632 48.6831 1.68211C48.7863 1.81817 48.8723 1.89247 49.0247 1.96846C49.2183 1.97414 49.336 1.89952 49.4973 1.7981C49.6033 1.66025 49.615 1.59439 49.6063 1.42114C49.5417 1.23689 49.4829 1.15762 49.3228 1.04417C49.0734 1.0042 48.967 0.999555 48.7739 1.16741ZM42.3182 5.60399C42.1984 5.78562 42.188 5.87601 42.2273 6.08969C42.3719 6.28476 42.455 6.3681 42.6962 6.41229C42.9069 6.37207 42.9741 6.31941 43.0997 6.14769C43.1625 6.00844 43.1625 6.00844 43.1579 5.85772C43.056 5.64241 43.056 5.64241 42.8671 5.50975C42.6418 5.48895 42.5094 5.47686 42.3182 5.60399ZM55.7204 11.0772C55.623 11.2713 55.5909 11.3729 55.644 11.5847C55.717 11.7313 55.717 11.7313 55.8949 11.8311C56.0644 11.865 56.0644 11.865 56.2438 11.8311C56.4394 11.687 56.523 11.6041 56.5673 11.3636C56.527 11.1535 56.4742 11.0865 56.302 10.9612C56.0535 10.8659 55.9225 10.9084 55.7204 11.0772Z" fill="#6947DB"/>
<path d="M54.4072 0.16212C54.7659 0.429317 55.0291 0.763047 55.1262 1.20489C55.1556 1.47335 55.1363 1.77036 55.0402 2.02429C55.0098 2.14957 55.0098 2.14957 55.0948 2.2516C55.1316 2.28801 55.1685 2.32443 55.2065 2.36195C55.2484 2.40407 55.2903 2.44618 55.3335 2.48958C55.3804 2.5352 55.4273 2.58082 55.4756 2.62782C55.5243 2.67631 55.573 2.72481 55.6231 2.77477C55.757 2.90781 55.8914 3.04019 56.0262 3.17231C56.1668 3.31058 56.3067 3.44969 56.4466 3.58872C56.7119 3.85205 56.9779 4.11466 57.2442 4.37699C57.6351 4.76221 58.0251 5.14844 58.4149 5.53474C58.4724 5.59167 58.5298 5.64859 58.5873 5.70552C58.6153 5.73331 58.6433 5.7611 58.6722 5.78973C58.8662 5.9819 59.0606 6.1737 59.255 6.36539C59.3564 6.46549 59.4577 6.56559 59.559 6.66569C59.629 6.73447 59.629 6.73447 59.7004 6.80464C59.7427 6.84643 59.7849 6.88822 59.8284 6.93128C59.8653 6.96765 59.9023 7.00402 59.9403 7.0415C60.126 7.24046 60.0887 7.44658 60.0838 7.70272C60.0825 7.79994 60.0812 7.89717 60.0799 7.99439C60.0788 8.07199 60.0788 8.07199 60.0777 8.15115C60.0736 8.4833 60.0732 8.81549 60.0722 9.14766C60.0711 9.43913 60.0687 9.73048 60.0633 10.0219C60.0582 10.3041 60.0568 10.5861 60.0579 10.8684C60.0576 10.9754 60.0561 11.0824 60.0531 11.1894C60.0394 11.7074 60.0402 12.124 60.3993 12.5268C60.701 12.8389 60.701 12.8389 61.1074 12.9456C61.293 12.9171 61.293 12.9171 61.4795 12.8625C61.738 12.7944 61.9346 12.8274 62.1776 12.9325C62.5482 13.1522 62.8579 13.4406 63.0182 13.8484C63.1349 14.318 63.0913 14.7666 62.8494 15.1852C62.5628 15.5826 62.1988 15.7791 61.7196 15.8793C61.2697 15.9191 60.9127 15.7852 60.5498 15.525C60.2527 15.2742 60.0986 14.9973 60.0257 14.6143C60.0087 14.3632 60.0096 14.1449 60.0839 13.9027C60.0839 13.6523 60.056 13.626 59.8901 13.4519C59.8044 13.3706 59.7174 13.2905 59.6295 13.2116C59.5429 13.1312 59.4564 13.0507 59.3703 12.9698C59.3315 12.9348 59.2928 12.8997 59.2529 12.8636C59.1439 12.7486 59.0906 12.6757 59.037 12.5265C59.0525 12.3431 59.0525 12.3431 59.0932 12.1222C59.3675 10.4999 59.6427 8.50184 58.6529 7.07438C58.0653 6.28924 57.3696 5.60306 56.6561 4.93285C56.601 4.88064 56.5459 4.82844 56.4891 4.77465C56.1169 4.42314 55.7384 4.07968 55.3532 3.74237C55.3026 3.69772 55.2521 3.65306 55.2 3.60705C55.0569 3.48217 54.9118 3.36028 54.7654 3.23924C54.7236 3.20263 54.6817 3.16602 54.6386 3.1283C54.4628 2.98794 54.3478 2.89651 54.1171 2.90489C53.964 2.934 53.964 2.934 53.8223 2.97879C53.4635 3.07539 53.1177 2.96703 52.8012 2.79294C52.4814 2.58453 52.2366 2.27443 52.116 1.91351C52.0763 1.30839 52.0944 0.921397 52.4868 0.449147C52.9613 -0.0659401 53.7878 -0.213192 54.4072 0.16212ZM53.2537 1.13421C53.1277 1.33021 53.1301 1.45302 53.1629 1.68153C53.2662 1.82135 53.3499 1.89077 53.5046 1.96788C53.7031 1.9737 53.8144 1.90686 53.9771 1.79752C54.0782 1.63531 54.0782 1.63531 54.0934 1.44955C54.016 1.2797 53.9345 1.17506 53.8026 1.04359C53.5784 1.01875 53.4462 1.01117 53.2537 1.13421ZM61.1307 14.0924C61.0614 14.3045 61.0536 14.3997 61.1489 14.6034C61.2364 14.7355 61.2364 14.7355 61.3634 14.7883C61.562 14.8173 61.562 14.8173 61.7705 14.7883C61.9263 14.6763 61.9263 14.6763 62.0031 14.4983C61.9996 14.2957 61.982 14.1559 61.8796 13.98C61.6219 13.8344 61.3239 13.8702 61.1307 14.0924Z" fill="#6947DB"/>
<path d="M58.7701 0.0831866C59.0797 0.271371 59.3858 0.583749 59.5008 0.927732C59.5513 0.927083 59.5513 0.927083 59.6028 0.926421C59.9558 0.922407 60.3086 0.922086 60.6615 0.923838C60.793 0.924016 60.9244 0.923275 61.0558 0.921572C61.2456 0.919277 61.4352 0.920365 61.625 0.922068C61.7121 0.91993 61.7121 0.91993 61.8009 0.917749C62.2238 0.926242 62.4281 1.0544 62.7238 1.35014C62.7982 1.42812 62.7982 1.42812 62.874 1.50768C62.9582 1.58999 63.0424 1.67229 63.1269 1.7543C63.2821 1.90558 63.435 2.05905 63.5883 2.21222C63.655 2.27868 63.7217 2.34513 63.7884 2.41157C63.9269 2.5496 64.0653 2.68774 64.2036 2.82595C64.3809 3.00301 64.5584 3.17982 64.736 3.35654C64.8732 3.49316 65.0102 3.62991 65.1473 3.7667C65.2127 3.83199 65.2782 3.89724 65.3437 3.96245C65.4349 4.05319 65.5258 4.14411 65.6167 4.23509C65.6685 4.2867 65.7202 4.33831 65.7734 4.39149C65.9439 4.57146 66.0294 4.68391 66.0279 4.93007C66.0278 4.99972 66.0278 4.99972 66.0278 5.07077C66.0272 5.12062 66.0266 5.17046 66.026 5.22182C66.0259 5.27306 66.0257 5.3243 66.0255 5.3771C66.0249 5.54079 66.0234 5.70446 66.0219 5.86814C66.0213 5.9791 66.0208 6.09007 66.0203 6.20104C66.0191 6.47308 66.017 6.74512 66.0147 7.01715C66.0686 7.0339 66.1225 7.05065 66.178 7.0679C66.5172 7.18713 66.7024 7.377 66.8798 7.68047C67.0713 8.09652 67.0855 8.5466 66.9518 8.98353C66.7677 9.38847 66.4981 9.66888 66.091 9.85163C65.6716 9.98592 65.2359 9.98178 64.8333 9.80089C64.4539 9.58647 64.1765 9.28716 64.0372 8.87298C63.9492 8.44341 63.9592 8.05317 64.1535 7.65509C64.3393 7.38686 64.5499 7.15463 64.8515 7.01715C64.8898 7.01715 64.9282 7.01715 64.9678 7.01715C65.0683 6.09231 65.1081 5.21698 64.5024 4.45831C64.236 4.14612 63.9485 3.85762 63.6494 3.57682C63.5455 3.47852 63.4436 3.37849 63.3419 3.27789C62.5957 2.54494 61.8976 1.90238 60.7991 1.85904C60.3377 1.86599 59.8908 1.92146 59.4426 2.02963C59.4346 2.06551 59.4267 2.1014 59.4184 2.13837C59.3419 2.41594 59.0959 2.63983 58.8674 2.80508C58.477 3.02108 58.063 3.06457 57.6324 2.95391C57.2182 2.80867 56.9264 2.60589 56.7127 2.21811C56.509 1.75804 56.4873 1.35921 56.6548 0.884236C56.8257 0.473568 57.0858 0.271673 57.4652 0.057814C57.841 -0.0670926 58.4012 -0.0787005 58.7701 0.0831866ZM57.7342 1.14521C57.6116 1.3111 57.6116 1.3111 57.5815 1.50768C57.6587 1.73422 57.7103 1.83089 57.9232 1.94626C58.1061 1.9883 58.1061 1.9883 58.2649 1.89914C58.3978 1.80035 58.3978 1.80035 58.5121 1.68166C58.537 1.45809 58.5446 1.32627 58.4212 1.13434C58.1811 0.980852 57.9655 0.975229 57.7342 1.14521ZM65.2041 8.02843C65.0603 8.20655 65.0406 8.30623 65.0562 8.53022C65.0799 8.657 65.0799 8.657 65.2041 8.78961C65.4279 8.89885 65.545 8.88502 65.782 8.81498C65.9333 8.68362 65.9534 8.60745 65.9783 8.40902C65.9534 8.21059 65.9333 8.13442 65.782 8.00306C65.545 7.93302 65.4279 7.91919 65.2041 8.02843Z" fill="#6947DB"/>
<path d="M48.0782 4.68843C48.2191 4.81348 48.2191 4.81348 48.2853 4.94082C48.3674 5.09827 48.4385 5.21291 48.568 5.33543C48.8397 5.40524 49.1033 5.39529 49.3823 5.38617C49.5276 5.38409 49.6731 5.38271 49.8185 5.3821C49.8826 5.38029 49.9468 5.37849 50.0129 5.37663C50.4565 5.41721 50.7108 5.70734 51.008 6.00757C51.0511 6.05054 51.0942 6.09352 51.1387 6.13779C51.2294 6.2284 51.3199 6.31922 51.4102 6.41024C51.5485 6.54952 51.6876 6.688 51.8268 6.82641C51.915 6.91467 52.0031 7.00299 52.0912 7.09135C52.1328 7.13273 52.1743 7.17412 52.2172 7.21676C52.2556 7.25566 52.2941 7.29456 52.3337 7.33464C52.3675 7.36863 52.4013 7.40262 52.4362 7.43764C52.6169 7.64938 52.6535 7.81051 52.6513 8.08666C52.6511 8.14975 52.651 8.21284 52.6508 8.27785C52.6502 8.34569 52.6496 8.41354 52.649 8.48344C52.6493 8.62699 52.6497 8.77054 52.6502 8.9141C52.6505 9.14054 52.6501 9.36692 52.6482 9.59335C52.6466 9.81183 52.6476 10.0302 52.649 10.2486C52.6472 10.3504 52.6472 10.3504 52.6454 10.4542C52.6353 10.7819 52.6353 10.7819 52.7874 11.0531C52.9094 11.1263 52.9094 11.1263 53.1045 11.1929C53.4226 11.4681 53.5964 11.8011 53.6463 12.2157C53.6671 12.6946 53.5305 13.0164 53.2717 13.4112C52.9275 13.7395 52.5933 13.8782 52.1158 13.8969C51.6319 13.8775 51.2607 13.7332 50.9271 13.3785C50.6205 12.9758 50.5435 12.5625 50.6036 12.0628C50.7092 11.5878 50.9653 11.2963 51.3597 11.0189C51.4173 10.9998 51.4748 10.9806 51.5342 10.9609C51.7803 9.19021 51.7803 9.19021 51.2186 7.57093C50.7265 6.97466 50.1053 6.44731 49.3128 6.36664C49.0588 6.36405 48.8165 6.38493 48.568 6.43732C48.5508 6.49167 48.5335 6.54602 48.5158 6.60202C48.3793 6.99232 48.1064 7.17752 47.7538 7.36524C47.3971 7.48379 46.8958 7.49623 46.5397 7.36161C46.1155 7.09935 45.7802 6.8219 45.66 6.32133C45.6011 5.76438 45.6643 5.36065 46.0199 4.91859C46.5882 4.30167 47.3785 4.28569 48.0782 4.68843ZM46.9541 5.52391C46.8211 5.6227 46.8211 5.6227 46.7069 5.74139C46.682 5.96496 46.6744 6.09678 46.7978 6.28871C46.9943 6.41436 47.1175 6.41197 47.3467 6.37933C47.4869 6.2763 47.5565 6.19283 47.6338 6.03861C47.6397 5.84066 47.5726 5.72966 47.463 5.56741C47.2554 5.45489 47.1718 5.42521 46.9541 5.52391ZM51.7668 12.0628C51.6304 12.2301 51.6304 12.2301 51.6578 12.4398C51.6917 12.6405 51.6917 12.6405 51.8068 12.7551C51.987 12.8377 52.0938 12.8487 52.2902 12.8167C52.4696 12.7056 52.4696 12.7056 52.581 12.5267C52.581 12.3196 52.5663 12.1857 52.4502 12.012C52.1829 11.8407 52.0142 11.8761 51.7668 12.0628Z" fill="#6947DB"/>
<path d="M41.5274 8.11874C41.7772 8.29524 41.9763 8.47637 42.109 8.75668C42.109 8.79496 42.109 8.83324 42.109 8.87267C42.7723 8.8745 43.4356 8.87415 44.0989 8.87102C44.4069 8.86964 44.7148 8.869 45.0228 8.87008C45.32 8.87109 45.6171 8.87014 45.9143 8.86782C46.0278 8.86728 46.1412 8.86745 46.2546 8.86834C46.4134 8.86946 46.572 8.86807 46.7308 8.86609C46.7779 8.867 46.8249 8.86792 46.8733 8.86887C47.0214 8.86968 47.0214 8.86968 47.2271 8.81468C47.3399 8.68596 47.3892 8.5683 47.4597 8.40872C47.7309 8.09706 48.0623 7.92255 48.4705 7.86842C48.9185 7.84674 49.2821 7.98646 49.6589 8.22023C50.0661 8.63786 50.1606 9.03259 50.1548 9.60372C50.1151 9.99918 49.9411 10.3098 49.6516 10.5799C49.2331 10.896 48.7931 10.9719 48.2739 10.9025C47.849 10.7723 47.5275 10.5201 47.2852 10.1486C47.266 10.072 47.2468 9.99544 47.2271 9.91657C45.5381 9.91657 43.8492 9.91657 42.109 9.91657C42.0706 10.0123 42.0322 10.108 41.9927 10.2065C41.7556 10.5582 41.479 10.8002 41.0621 10.9025C40.5391 10.9623 40.1068 10.8989 39.6845 10.5799C39.397 10.3116 39.2266 10.0027 39.1772 9.61187C39.165 9.15466 39.231 8.82471 39.4664 8.43046C40.053 7.86052 40.8095 7.68708 41.5274 8.11874ZM40.3642 9.04665C40.2278 9.25069 40.2142 9.32838 40.2479 9.56861C40.3925 9.76367 40.4756 9.84701 40.7168 9.8912C40.9275 9.85098 40.9946 9.79832 41.1203 9.6266C41.1932 9.43762 41.192 9.36718 41.1094 9.18077C41.0008 9.04267 40.936 8.9871 40.7713 8.93067C40.5876 8.93067 40.5177 8.95283 40.3642 9.04665ZM48.2739 9.10465C48.1775 9.26755 48.1775 9.26755 48.1576 9.45262C48.235 9.62247 48.3166 9.72711 48.4484 9.85858C48.6155 9.89247 48.6155 9.89247 48.7974 9.85858C48.993 9.7144 49.0766 9.63157 49.1209 9.391C49.0806 9.18095 49.0278 9.11397 48.8555 8.98866C48.6071 8.89337 48.476 8.93581 48.2739 9.10465Z" fill="#6947DB"/>
</g>
<defs>
<clipPath id="clip0_158_317">
<rect width="29.7778" height="29.6932" fill="white" transform="translate(37.2227)"/>
</clipPath>
</defs>
</svg>
